<svg class="mobile-logo" width="30" height="26" viewBox="0 0 30 26" fill="none" xmlns="http://www.w3.org/2000/svg">
                <path d="M29.4852 4.77341C29.4852 5.78973 28.6619 6.61396 27.6534 6.61396C26.6449 6.61396 25.8171 5.78973 25.8171 4.77341C25.8171 3.75709 26.6382 2.93286 27.6534 2.93286C28.6686 2.93286 29.4852 3.75709 29.4852 4.77341" fill="white"></path>
                <path d="M6.68259 16.5717V6.75911H9.54073V13.9962C11.5756 12.3187 13.751 10.8132 15.971 9.511V3.31478H18.8247V7.95636C20.6386 7.04725 22.4548 6.28333 24.2219 5.67131C21.8791 2.24931 17.9456 0 13.4899 0C6.31222 0 0.5 5.82096 0.5 13.0045C0.5 15.8881 1.44379 18.5574 3.03462 20.7151C4.13905 19.2588 5.36174 17.8739 6.68259 16.5717" fill="white"></path>
                <path d="M24.4671 6.04883C22.5884 6.81945 20.6808 7.86704 18.8222 9.14694V22.6875H15.9685V11.3315C12.0305 14.6552 8.54541 19.0019 6.37671 23.8847C8.42047 25.2249 10.8614 26 13.4875 26C20.6607 26 26.4818 20.1858 26.4818 13.0067C26.4818 10.4469 25.7411 8.06137 24.4649 6.04883" fill="white"></path>
            </svg>